# xmcd
#
# Track frame offsets:
#	150
#	15412
#	31419
#	48812
#	77567
#	97687
#	125117
#	142537
#	161965
#	181680
#
# Disc length: 2593 seconds
#
# Revision: 1
# Processed by: cddbd v1.4PL0 Copyright (c) Steve Scherf et al.
# Submitted via: audiograbber 1.81.03
#
DISCID=690a1f0a
DTITLE=Fatt Cat Freddie - Out of the Box
DYEAR=2001
DGENRE=Blues
TTITLE0=Shotgun Houses
TTITLE1=Lady Love
TTITLE2=Can't Go On
TTITLE3=Everyday Blues
TTITLE4=Outta Nowhere
TTITLE5=Through the Pain
TTITLE6=I Know ( A Lot About You)
TTITLE7=Leavin' on His Mind
TTITLE8=Next Time Around
TTITLE9=11:59PM
EXTD=
EXTT0=
EXTT1=
EXTT2=
EXTT3=
EXTT4=
EXTT5=
EXTT6=
EXTT7=
EXTT8=
EXTT9=
PLAYORDER=
